<svg data-v-0dd9719b="" version="1.0" xmlns="http://www.w3.org/2000/svg" xmlns:xlink="http://www.w3.org/1999/xlink" width="100%" height="100%" viewBox="0 0 340.000000 250.000000" preserveAspectRatio="xMidYMid meet" color-interpolation-filters="sRGB" style="margin: auto;"> <rect data-v-0dd9719b="" x="0" y="0" width="100%" height="100%" fill="#fff" fill-opacity="1" class="background"></rect> <rect data-v-0dd9719b="" x="0" y="0" width="100%" height="100%" fill="url(#watermark)" fill-opacity="1" class="watermarklayer"></rect> <g data-v-0dd9719b="" fill="#3299bb" class="icon-text-wrapper icon-svg-group iconsvg" transform="translate(47.196983337402344,96.60086059570312)"><g class="iconsvg-imagesvg" transform="translate(0,0)"><g><rect fill="#3299bb" fill-opacity="0" stroke-width="2" x="0" y="0" width="60" height="56.7982809053646" class="image-rect"></rect> <svg x="0" y="0" width="60" height="56.7982809053646" filtersec="colorsb3417362201" class="image-svg-svg primary" style="overflow: visible;"><svg xmlns="http://www.w3.org/2000/svg" viewBox="8.419952392578125 0 844.570068359375 799.5"><path fill="#3299BB" d="M620.72 0c137.76 69.58 232.27 212.36 232.27 377.21 0 233.19-189.07 422.29-422.28 422.29-233.17 0-422.29-189.1-422.29-422.29C8.42 212.36 102.94 69.58 240.71 0 168.2 56.59 121.56 144.79 121.56 243.86c0 170.68 138.45 309.15 309.16 309.15 170.7 0 309.14-138.47 309.14-309.15C739.85 144.79 693.23 56.59 620.72 0z"></path><path fill="#424242" d="M386.25 64.02c103.78 0 187.94 84.12 187.94 187.9 0 103.77-84.16 187.9-187.94 187.9-103.76 0-187.91-84.13-187.91-187.9 0-103.77 84.16-187.9 187.91-187.9z"></path><path fill="#F90" d="M560.02 136.77c63.6 0 115.19 51.56 115.19 115.15s-51.59 115.16-115.19 115.16-115.16-51.57-115.16-115.16c0-63.59 51.56-115.15 115.16-115.15z"></path></svg></svg> <!----></g></g> <g transform="translate(67,4.063320159912109)"><g data-gra="path-name" fill-rule="" class="tp-name iconsvg-namesvg" transform="translate(0,0)"><g transform="scale(1)"><g><path d="M19.15-30.6L19.15-30.6 19.44-30.78Q24.23-29.92 25.34-27.4L25.34-27.4Q26.06-25.85 25.02-24.7L25.02-24.7Q24.01-23.54 22.46-24.19L22.46-24.19Q22.07-24.34 21.67-24.66L21.67-24.66Q21.46-27.76 19.15-30.6ZM14.54-20.77L10.62-20.77 10.62-17.89Q14.98-16.34 15.84-13.72L15.84-13.72Q16.38-12.06 15.34-11.09 14.29-10.12 12.92-10.98L12.92-10.98Q12.71-11.12 12.53-11.3L12.53-11.3Q12.35-14 10.62-16.99L10.62-16.99 10.62 1.98Q10.62 2.3 9.58 2.77 8.53 3.24 7.49 3.24L7.49 3.24 6.66 3.24 6.66-11.7Q4.36-7.92 1.22-5.22L1.22-5.22 0.79-5.58Q4.54-11.27 6.12-20.77L6.12-20.77 1.48-20.77 1.19-21.82 6.66-21.82 6.66-30.64 10.62-30.13 10.62-22.32 12.13-24.55Q13.36-23.47 14.44-22.39L14.44-22.39Q14.72-22.14 15.01-21.82L15.01-21.82Q15.34-21.49 15.48-21.35L15.48-21.35Q15.37-20.77 14.54-20.77L14.54-20.77ZM33.48-6.77L33.88-6.77 34.02-1.62Q34.67-1.3 34.88-0.94 35.1-0.58 35.1 0L35.1 0Q35.1 2.2 30.49 2.2L30.49 2.2 28.87 2.2Q26.96 2.2 26.39 1.51 25.81 0.83 25.81-1.04L25.81-1.04 25.81-16.92 21.35-16.92 21.35-10.69Q21.35-9 21.2-7.67L21.2-7.67Q21.06-6.37 20.52-4.68L20.52-4.68Q19.98-3.02 19.04-1.69 18.11-0.36 16.38 0.97 14.65 2.3 12.28 3.31L12.28 3.31 11.95 2.95Q15.26 0.36 16.38-2.95 17.5-6.26 17.5-10.69L17.5-10.69 17.5-19.55 22-17.96 29.7-17.96 29.7-2.02Q29.7-1.66 29.81-1.51L29.81-1.51Q29.92-1.4 30.24-1.4L30.24-1.4 30.92-1.4Q31.46-1.4 31.57-1.44L31.57-1.44Q31.9-1.44 32.15-1.87L32.15-1.87Q32.36-2.38 33.48-6.77L33.48-6.77ZM34.85-22.32L14.54-22.32 14.18-23.33 34.85-23.33 34.85-22.32ZM43.38-15.62L43.38-30.06 47.41-29.52Q47.41-29.52 47.41-15.59L47.41-15.59Q47.38-12.46 46.91-9.83L46.91-9.83Q46.44-7.24 45.32-4.72L45.32-4.72Q44.24-2.2 42.19-0.14L42.19-0.14Q40.18 1.91 37.26 3.35L37.26 3.35 36.97 2.99Q40.61-0.36 41.98-4.93L41.98-4.93Q43.38-9.5 43.38-15.62L43.38-15.62ZM64.44 3.28L64.44-30.06 68.62-29.48 68.62 1.84Q68.62 2.23 67.46 2.74L67.46 2.74Q66.35 3.28 65.23 3.28L65.23 3.28 64.44 3.28ZM53.71 2.63L53.71-29.45 57.78-28.91 57.78 1.26Q57.78 1.62 56.66 2.12L56.66 2.12Q55.58 2.63 54.5 2.63L54.5 2.63 53.71 2.63ZM47.81-20.05L48.24-20.2Q52.34-17.57 52.85-14.33L52.85-14.33Q53.14-12.31 52.02-11.41L52.02-11.41Q50.87-10.48 49.61-11.7L49.61-11.7Q49.54-11.77 49.46-11.84L49.46-11.84Q49.68-15.34 47.81-20.05L47.81-20.05ZM58.21-20.09L58.64-20.27Q62.89-17.82 63.54-14.65L63.54-14.65Q63.94-12.6 62.78-11.59L62.78-11.59Q61.7-10.62 60.44-11.7L60.44-11.7Q60.26-11.84 60.12-11.99L60.12-11.99Q60.3-15.66 58.21-20.09L58.21-20.09ZM37.48-20.7L37.91-20.84Q42.23-17.96 42.8-14.36L42.8-14.36Q43.2-12.13 42.01-11.02L42.01-11.02Q40.86-10.01 39.53-11.2L39.53-11.2Q39.38-11.3 39.24-11.45L39.24-11.45Q39.49-15.62 37.48-20.7L37.48-20.7ZM73.48-0.29L73.19-1.3 107.21-1.3 107.21-0.29Q107.21-0.29 73.48-0.29L73.48-0.29ZM77.83-13.32L77.54-14.36 102.35-14.36 102.35-13.32 77.83-13.32ZM75.42-25.16L75.13-26.21 105.26-26.21 105.26-25.16 75.42-25.16ZM123.98-20.77L118.26-20.77 118.26-17.89Q122.54-16.49 123.37-13.97L123.37-13.97Q123.91-12.42 122.9-11.48L122.9-11.48Q121.86-10.55 120.53-11.45L120.53-11.45Q120.38-11.56 120.24-11.66L120.24-11.66Q120.1-14.11 118.26-17.03L118.26-17.03 118.26 1.98Q118.26 2.3 117.22 2.77 116.17 3.24 115.13 3.24L115.13 3.24 114.3 3.24 114.3-11.3Q112.18-7.81 109.33-5.15L109.33-5.15 108.9-5.54Q112.43-11.34 113.8-20.77L113.8-20.77 109.48-20.77 109.19-21.82 114.3-21.82 114.3-30.64 118.26-30.13Q118.26-30.13 118.26-21.82L118.26-21.82 123.98-21.82 123.98-20.77ZM136.3-20.63L128.09-20.63 128.09-15.16 136.3-15.16 136.3-20.63ZM128.09-26.78L128.09-21.67 136.3-21.67 136.3-26.78 128.09-26.78ZM139-13.1L139-13.1 142.99-10.12Q142.67-9.68 141.7-9.9L141.7-9.9Q139.1-7.92 135.54-6.23L135.54-6.23Q138.89-2.45 143.5-0.86L143.5-0.86 143.42-0.54Q142.31-0.22 141.44 0.72L141.44 0.72Q140.62 1.66 140.29 3.1L140.29 3.1Q136.22 0.65 133.92-3.46L133.92-3.46Q131.65-7.6 130.54-14.11L130.54-14.11 128.09-14.11 128.09-1.94Q130-2.41 132.95-3.17L132.95-3.17 133.06-2.74Q129.02 0.29 125.57 2.38L125.57 2.38Q125.06 2.99 124.56 3.2L124.56 3.2 122.72-0.72Q123.7-1.22 123.98-1.58 124.27-1.94 124.27-2.66L124.27-2.66 124.27-29.59 128.56-27.79 140.15-27.79 140.15-13.86Q140.11-13.57 139-13.1ZM138.89-12.96L138.89-12.96Q137.88-12.67 136.94-12.67L136.94-12.67 136.3-12.67 136.3-14.11 131.18-14.11Q132.41-10.19 134.82-7.13L134.82-7.13Q137.2-10.04 138.89-12.96ZM152.39-22.21L152.39-22.21 151.96-25.81 145.37-25.81 145.08-26.86 151.81-26.86 151.38-30.56 155.63-30.17Q155.63-30.17 155.95-26.86L155.95-26.86 162.36-26.86 162.36-25.81 156.06-25.81 156.42-23.29Q155.56-22.14 152.39-22.21ZM154.87-14.44L154.87-10.19 168.88-10.19 168.88-14.44 154.87-14.44ZM168.88-15.44L168.88-19.55 154.87-19.55 154.87-15.44 168.88-15.44ZM164.05-4.93L178.13-4.93 178.13-3.92 164.05-3.92 164.05 2.16Q164.02 2.3 163.62 2.52L163.62 2.52Q163.22 2.77 162.36 2.99L162.36 2.99Q161.53 3.2 160.56 3.2L160.56 3.2 159.8 3.2 159.8-3.92 146.38-3.92 146.12-4.93 159.8-4.93 159.8-9.14 154.87-9.14 154.87-8.14Q154.87-7.78 153.68-7.31L153.68-7.31Q152.53-6.88 151.34-6.88L151.34-6.88 150.73-6.88 150.73-22.32 155.12-20.56 173.02-20.56 173.05-18.97 173.05-8.71Q173.02-8.42 171.79-7.96 170.57-7.49 169.6-7.49L169.6-7.49 168.88-7.49 168.88-9.14 164.05-9.14 164.05-4.93ZM171.58-26.86L179.03-26.86 179.03-25.81 171.43-25.81 170.96-23.08Q169.56-22 166.82-22.57L166.82-22.57 167.33-25.81 163.26-25.81 162.97-26.86 167.47-26.86 168.05-30.67 171.94-29.74 171.58-26.86Z" transform="translate(-0.7899999618530273, 30.780000686645508)"></path></g> <!----> <!----> <!----> <!----> <!----> <!----> <!----></g></g> <g data-gra="path-slogan" fill-rule="" class="tp-slogan iconsvg-slogansvg" fill="#3299bb" transform="translate(-0.36499786376953125,40.130001068115234)"><!----> <!----> <g transform="scale(1, 1)"><g transform="scale(1)"><path d="M2.95-7.25L0.18-7.25L0.18-8.19L6.80-8.19L6.80-7.25L4.03-7.25L4.03 0L2.95 0L2.95-7.25ZM8.90-4.83L13.20-4.83L13.20-8.19L14.32-8.19L14.32 0L13.20 0L13.20-3.80L8.90-3.80L8.90 0L7.79 0L7.79-8.19L8.90-8.19L8.90-4.83ZM19.96-3.53L17.27-3.53L17.27 0L16.15 0L16.15-8.19L19.96-8.19Q22.68-8.19 22.68-6.00L22.68-6.00Q22.68-4.65 21.52-4.03L21.52-4.03Q22.51-3.76 22.51-2.46L22.51-2.46L22.60-0.98Q22.55-0.36 23.00-0.18L23.00-0.18L23.00 0L21.61 0Q21.48-0.58 21.43-2.06L21.43-2.06Q21.48-3.53 19.96-3.53L19.96-3.53ZM20.04-7.29L17.27-7.29L17.27-4.47L19.87-4.47Q21.52-4.47 21.52-5.91L21.52-5.91Q21.52-7.29 20.04-7.29L20.04-7.29ZM25.50-0.98L30.43-0.98L30.43 0L24.38 0L24.38-8.19L30.34-8.19L30.34-7.25L25.50-7.25L25.50-4.70L29.98-4.70L29.98-3.71L25.50-3.71L25.50-0.98ZM33.11-0.98L38.03-0.98L38.03 0L31.99 0L31.99-8.19L37.94-8.19L37.94-7.25L33.11-7.25L33.11-4.70L37.58-4.70L37.58-3.71L33.11-3.71L33.11-0.98ZM48.77-3.45L46.26-3.45L46.26-4.38L49.84-4.38L49.84 0L49.13 0L48.86-1.03Q47.92 0.09 46.17 0.13L46.17 0.13Q44.52 0.13 43.62-0.72L43.62-0.72Q42.28-1.97 42.33-4.16L42.33-4.16Q42.64-8.23 46.22-8.41L46.22-8.41Q49.26-8.23 49.71-5.73L49.71-5.73L48.64-5.73Q48.19-7.43 46.17-7.47L46.17-7.47Q43.62-7.29 43.49-4.12L43.49-4.12Q43.49-0.72 46.22-0.72L46.22-0.72Q47.20-0.72 47.92-1.25L47.92-1.25Q48.81-1.97 48.77-3.45L48.77-3.45ZM55.48-3.53L52.80-3.53L52.80 0L51.68 0L51.68-8.19L55.48-8.19Q58.21-8.19 58.21-6.00L58.21-6.00Q58.21-4.65 57.05-4.03L57.05-4.03Q58.03-3.76 58.03-2.46L58.03-2.46L58.12-0.98Q58.08-0.36 58.52-0.18L58.52-0.18L58.52 0L57.14 0Q57.00-0.58 56.96-2.06L56.96-2.06Q57.00-3.53 55.48-3.53L55.48-3.53ZM55.57-7.29L52.80-7.29L52.80-4.47L55.39-4.47Q57.05-4.47 57.05-5.91L57.05-5.91Q57.05-7.29 55.57-7.29L55.57-7.29ZM65.19 0L64.38-2.37L61.07-2.37L60.22 0L59.11 0L62.19-8.19L63.45-8.19L66.40 0L65.19 0ZM62.73-6.98L61.43-3.36L63.98-3.36L62.77-6.98L62.73-6.98ZM73.38-5.82L73.38-5.82L72.35-5.82Q72.26-7.38 70.29-7.47L70.29-7.47Q68.46-7.43 68.46-6.04L68.46-6.04Q68.46-5.15 69.44-5.01L69.44-5.01L71.77-4.47Q73.60-4.03 73.60-2.24L73.60-2.24Q73.56 0.04 70.38 0.13L70.38 0.13Q68.64 0.13 67.92-0.58L67.92-0.58Q67.02-1.25 67.07-2.64L67.07-2.64L68.14-2.64Q68.19-0.76 70.38-0.72L70.38-0.72Q72.53-0.76 72.57-2.10L72.57-2.10Q72.75-3.22 70.78-3.58L70.78-3.58L69.08-3.94Q67.34-4.43 67.34-5.91L67.34-5.91Q67.47-8.32 70.20-8.41L70.20-8.41Q73.29-8.41 73.38-5.82ZM80.98-5.82L80.98-5.82L79.96-5.82Q79.87-7.38 77.90-7.47L77.90-7.47Q76.06-7.43 76.06-6.04L76.06-6.04Q76.06-5.15 77.05-5.01L77.05-5.01L79.37-4.47Q81.21-4.03 81.21-2.24L81.21-2.24Q81.16 0.04 77.99 0.13L77.99 0.13Q76.24 0.13 75.53-0.58L75.53-0.58Q74.63-1.25 74.68-2.64L74.68-2.64L75.75-2.64Q75.79-0.76 77.99-0.72L77.99-0.72Q80.13-0.76 80.18-2.10L80.18-2.10Q80.36-3.22 78.39-3.58L78.39-3.58L76.69-3.94Q74.94-4.43 74.94-5.91L74.94-5.91Q75.08-8.32 77.81-8.41L77.81-8.41Q80.89-8.41 80.98-5.82ZM83.85-0.98L88.77-0.98L88.77 0L82.73 0L82.73-8.19L88.68-8.19L88.68-7.25L83.85-7.25L83.85-4.70L88.32-4.70L88.32-3.71L83.85-3.71L83.85-0.98ZM96.20-5.82L96.20-5.82L95.17-5.82Q95.08-7.38 93.11-7.47L93.11-7.47Q91.28-7.43 91.28-6.04L91.28-6.04Q91.28-5.15 92.26-5.01L92.26-5.01L94.59-4.47Q96.42-4.03 96.42-2.24L96.42-2.24Q96.38 0.04 93.20 0.13L93.20 0.13Q91.45 0.13 90.74-0.58L90.74-0.58Q89.84-1.25 89.89-2.64L89.89-2.64L90.96-2.64Q91.01-0.76 93.20-0.72L93.20-0.72Q95.35-0.76 95.39-2.10L95.39-2.10Q95.57-3.22 93.60-3.58L93.60-3.58L91.90-3.94Q90.16-4.43 90.16-5.91L90.16-5.91Q90.29-8.32 93.02-8.41L93.02-8.41Q96.11-8.41 96.20-5.82ZM101.16-8.19L102.28-8.19L102.28 0L101.16 0L101.16-8.19ZM105.50-8.19L109.62-1.57L109.62-8.19L110.69-8.19L110.69 0L109.44 0L105.28-6.62L105.23-6.62L105.23 0L104.16 0L104.16-8.19L105.50-8.19ZM116.69-4.83L120.98-4.83L120.98-8.19L122.10-8.19L122.10 0L120.98 0L120.98-3.80L116.69-3.80L116.69 0L115.57 0L115.57-8.19L116.69-8.19L116.69-4.83ZM129.22 0L128.41-2.37L125.10-2.37L124.25 0L123.13 0L126.22-8.19L127.47-8.19L130.43 0L129.22 0ZM126.76-6.98L125.46-3.36L128.01-3.36L126.80-6.98L126.76-6.98ZM132.75-8.19L136.87-1.57L136.87-8.19L137.94-8.19L137.94 0L136.69 0L132.53-6.62L132.48-6.62L132.48 0L131.41 0L131.41-8.19L132.75-8.19ZM145.77-3.45L143.27-3.45L143.27-4.38L146.85-4.38L146.85 0L146.13 0L145.86-1.03Q144.92 0.09 143.18 0.13L143.18 0.13Q141.52 0.13 140.63-0.72L140.63-0.72Q139.28-1.97 139.33-4.16L139.33-4.16Q139.64-8.23 143.22-8.41L143.22-8.41Q146.26-8.23 146.71-5.73L146.71-5.73L145.64-5.73Q145.19-7.43 143.18-7.47L143.18-7.47Q140.63-7.29 140.49-4.12L140.49-4.12Q140.49-0.72 143.22-0.72L143.22-0.72Q144.21-0.72 144.92-1.25L144.92-1.25Q145.82-1.97 145.77-3.45L145.77-3.45ZM149.35-0.98L154.41-0.98L154.41 0L147.96 0L147.96-0.89L152.98-7.25L148.32-7.25L148.32-8.19L154.41-8.19L154.41-7.25L149.35-0.98ZM156.60-4.83L160.89-4.83L160.89-8.19L162.01-8.19L162.01 0L160.89 0L160.89-3.80L156.60-3.80L156.60 0L155.48 0L155.48-8.19L156.60-8.19L156.60-4.83ZM170.20-4.07L170.20-4.07Q170.02-7.29 167.34-7.47L167.34-7.47Q164.61-7.34 164.47-4.07L164.47-4.07Q164.61-0.89 167.34-0.76L167.34-0.76Q170.02-0.94 170.20-4.07ZM171.32-4.07L171.32-4.07Q171.05 0 167.34 0.13L167.34 0.13Q163.58 0 163.31-4.07L163.31-4.07Q163.53-8.32 167.34-8.41L167.34-8.41Q171.05-8.28 171.32-4.07ZM178.03-3.04L178.03-8.19L179.15-8.19L179.15-2.91Q179.02 0.04 175.79 0.13L175.79 0.13Q172.80 0.04 172.66-2.73L172.66-2.73L172.66-8.19L173.78-8.19L173.78-3.04Q173.83-0.81 175.84-0.76L175.84-0.76Q178.03-0.81 178.03-3.04L178.03-3.04Z" transform="translate(-0.1789709172259508, 8.411633109619688)"></path></g></g></g></g></g><defs v-gra="od"></defs></svg>